<svg xmlns="http://www.w3.org/2000/svg" xmlns:svg="http://www.w3.org/2000/svg" id="svg2" width="3000" height="768.878" x="0" y="0" version="1.1" viewBox="-258 223.8 3000 768.878" xml:space="preserve"><title id="title4289">Newsweek Logozz</title><metadata id="metadata51"/><style id="style4" type="text/css">.st0{display:none;fill:#ff0500}</style><rect id="Rectangle-7" width="275" height="60" x="-281.5" y="801.678" class="st0" style="display:none;fill:maroon"/><g id="g4285" transform="matrix(6.8207449,0,0,6.8207449,2382.4852,546.30188)"><path id="rect4270" d="m -387.12564,-47.282501 439.834655,0 0,112.72644 -439.834655,0 z" style="color:#000;clip-rule:nonzero;display:inline;overflow:visible;visibility:visible;opacity:1;isolation:auto;mix-blend-mode:normal;color-interpolation:sRGB;color-interpolation-filters:linearRGB;solid-color:#000;solid-opacity:1;fill:#ff0500;fill-opacity:1;fill-rule:evenodd;stroke:none;stroke-width:1.5;stroke-linecap:butt;stroke-linejoin:miter;stroke-miterlimit:4;stroke-dasharray:none;stroke-dashoffset:0;stroke-opacity:1;color-rendering:auto;image-rendering:auto;shape-rendering:auto;text-rendering:auto;enable-background:accumulate"/><path style="fill:#fff" id="Logo-Copy" d="m -291.60953,-10.319377 -4.99796,0 0,43.576024 -9.37119,0 -22.80322,-29.6754286 0,19.9918676 4.99796,0 0,9.683561 -21.08517,0 0,-9.683561 4.99797,0 0,-33.892463 -4.99797,0 0,-9.68356 16.08721,0 21.24136,27.6450034 0,-17.9614434 -4.99797,0 0,-9.68356 21.08517,0 c -0.15619,0 -0.15619,9.68356 -0.15619,9.68356 z m 33.42391,24.833648 c 0,0.780932 0,1.561864 0,2.498983 l -23.27178,0 c -0.62475,7.496951 2.18661,9.683562 6.40364,9.683562 3.59229,0 6.24746,-2.342798 6.24746,-6.091273 l 9.99593,0 c -0.15619,6.559831 -3.59229,14.056782 -16.86814,14.056782 -13.11966,0 -19.21093,-9.527374 -19.21093,-20.148054 0,-9.5273744 6.24746,-19.6794943 19.05474,-19.6794943 12.18255,0 17.64908,8.5902553 17.64908,19.6794943 z m 57.47662,-9.5273744 -3.43611,0 -8.59025,28.8944964 -11.40162,0 -5.31033,-15.774834 -4.84178,15.774834 -11.55781,0 -9.52736,-28.8944964 -3.43611,0 0,-9.839747 20.14805,0 0,9.839747 -4.99797,0 5.31035,15.3062734 6.8722,-25.1460204 6.24746,0 8.43407,25.1460204 4.52941,-15.3062734 -4.99797,0 0,-9.839747 16.86813,0 c -0.31236,0 -0.31236,9.839747 -0.31236,9.839747 z m 14.21296,0.3123729 c 0,1.4056782 1.09331,2.3427969 4.84179,3.4361022 l 5.46652,1.7180503 c 4.99797,1.718052 11.08924,5.310341 11.08924,12.182545 0,7.96551 -5.93508,11.870172 -13.43204,11.870172 -5.93508,0 -10.46449,-2.811356 -11.71398,-4.217035 l 0,3.279916 -9.83975,0 0,-13.432036 9.68356,0 c 0.31238,4.373221 4.21704,6.716018 7.65314,6.716018 2.81136,0 4.21703,-1.249492 4.21703,-2.65517 0,-1.718051 -1.0933,-2.811357 -5.93508,-4.373221 l -4.84179,-1.561865 c -4.84177,-1.561864 -10.3083,-5.154153 -10.3083,-11.7139848 0,-7.9655096 7.02839,-11.8701709 12.96348,-11.8701709 6.24745,0 9.215,1.7180511 10.77686,3.4361018 l 0,-2.9675425 9.83975,0 0,12.0263575 -10.15212,0 c -0.15619,-3.2799158 -3.27991,-4.6855939 -6.55983,-4.6855939 -2.65517,0.1561864 -3.74848,1.2494916 -3.74848,2.8113563 l 0,0 z m 80.27985,-0.3123729 -3.4361,0 -8.59026,28.8944964 -11.40161,0 -5.31035,-15.774834 -4.84177,15.774834 -11.5578,0 -9.52738,-28.8944964 -3.4361,0 0,-9.839747 20.14806,0 0,9.839747 -4.99797,0 5.31034,15.3062734 6.71601,-25.1460204 6.24746,0 8.43408,25.1460204 4.5294,-15.3062734 -5.15415,0 0,-9.839747 16.86814,0 0,9.839747 z m 35.610512,9.5273744 c 0,0.780932 0,1.561864 0,2.498983 l -23.115598,0 c -0.624745,7.496951 2.186611,9.683562 6.403646,9.683562 3.592288,0 6.247458,-2.342798 6.247458,-6.091273 l 9.995934,0 c -0.156186,6.559831 -3.748475,14.056782 -16.868138,14.056782 -13.275844,0 -19.367114,-9.527374 -19.367114,-20.148054 0,-9.5273744 6.40364,-19.6794943 19.210927,-19.6794943 12.182544,0 17.492885,8.4340688 17.492885,19.6794943 z m 38.109496,-0.156186 c 0,0.780932 0,1.561864 0,2.498983 l -23.115596,0 c -0.624747,7.49695 2.186611,9.68356 6.403645,9.68356 3.592289,0 6.247458,-2.342796 6.247458,-6.091272 l 9.995934,0 c -0.156186,6.559832 -3.748475,14.056783 -16.868138,14.056783 -13.27585,0 -19.367122,-9.527375 -19.367122,-20.148054 0,-9.5273749 6.403646,-19.6794947 19.210936,-19.6794947 12.182544,0 17.492883,8.4340687 17.492883,19.6794947 z m 42.0141596,19.367122 -11.5577984,0 -12.0263582,-15.774834 -3.904661,2.967543 0,3.123729 3.436102,0 0,9.839748 -17.961444,0 0,-9.683561 3.436103,0 0,-34.361022 -4.997967,0 0,-9.839747 16.087206,0 0,30.924919 8.121696,-5.9350854 -4.997967,0 0,-9.839747 21.3975458,0 0,9.839747 -3.4361023,0 -8.434069,6.2474584 9.6835607,12.651104 4.9979669,0 c 0.1561865,0.156186 0.1561865,9.839748 0.1561865,9.839748 z M -55.611778,10.60961 l 12.651103,0 c 0,-5.4665269 -3.592288,-7.6531375 -6.091272,-7.6531375 -3.123729,0 -6.403645,2.4989835 -6.559831,7.6531375 z m -38.109498,0 12.651104,0 c 0,-5.4665269 -3.592289,-7.6531375 -6.247458,-7.6531375 -2.967544,0.1561865 -6.24746,2.6551699 -6.403646,7.6531375 l 0,0 z m -187.579944,0.156186 12.6511,0 c 0,-5.4665265 -3.59228,-7.653137 -6.24745,-7.653137 -3.12374,0 -6.24746,2.4989834 -6.40365,7.653137 z"/></g></svg>